<svg xmlns="http://www.w3.org/2000/svg" width="1.0in" height="1.0in" viewBox="0 0 16 16">
   <g>
      <path id="number" fill="gray" d="M 4.0,2.0
      h 8.0
      s 1.0,0.0 1.0,1.0
      v 4.5
      s 0.0,0.5 -1.0,0.5
      s 1.0,0.0 1.0,0.5
      v 4.5
      s 0.0,1.0 -1.0,1.0
      h -8.0
      s -1.0,0.0 -1.0,-1.0
      v -4.5
      s 0.0,-0.5 1.0,-0.5
      s -1.0,0.0 -1.0,-0.5
      v -4.5
      s 0.0,-1.0 1.0,-1.0
      Z

      M 6.5,4.0
      s -0.5,0.0 -0.5,0.5
      v 2.0
      s 0.0,0.5 1.0,0.5
      h 2.0
      s 1.0,0.0 1.0,-0.5
      v -2.0
      s 0.0,-0.5 -0.5,-0.5
      Z
      M 7.0,9.0
      s -1.0,0.0 -1.0,0.5
      v 2.0
      s 0.0,0.5 0.5,0.5
      h 3.0
      s 0.5,0.0 0.5,-0.5
      v -2.0
      s 0.0,-0.5 -1.0,-0.5
      Z
       " />
   </g>
</svg>