<svg xmlns="http://www.w3.org/2000/svg" width="1.0in" height="1.0in" viewBox="-16 -16 32 32">
    <defs>
        <style>
            .fill0 {
                fill: #FFFF00;
            }

            .fill1 {
                fill: #22220;
            }
        </style>
    </defs>
    <g>
        <rect x="-16.0" y="-16.0" width="32.0" height="32.0" fill="none" />
        <circle class="fill0" cx="0.0" cy="0.0" r="12.0" />
        <path class="fill1" d="M -4.5 -3.5 l 1.5 -1.5 c 1.0 -1.0 2.0 0.0 1.0 1.0 l -1.5 1.5 l 1.5 1.5 c 1.0 1.0 0.0 2.0 -1.0 1.0 l -1.5 -1.5 l -1.5 1.5 c -1.0 1.0 -2.0 0.0 -1.0 -1.0 l 1.5 -1.5 l -1.5 -1.5 c -1.0 -1.0 0.0 -2.0 1.0 -1.0 Z" />
        <path class="fill1" d="M -4.5 -3.5 l 1.5 -1.5 c 1.0 -1.0 2.0 0.0 1.0 1.0 l -1.5 1.5 l 1.5 1.5 c 1.0 1.0 0.0 2.0 -1.0 1.0 l -1.5 -1.5 l -1.5 1.5 c -1.0 1.0 -2.0 0.0 -1.0 -1.0 l 1.5 -1.5 l -1.5 -1.5 c -1.0 -1.0 0.0 -2.0 1.0 -1.0 Z" transform="scale(-1,1)" />
        <path class="fill1" d="M -4.0 3.5 A 6.0 6.0 0.0 0 0 4.0 3.5 C 5.0 2.5 5.0 4.0 4.0 5.0 A 8.0 12.0 0.0 0 1 -4.0 5.0 C -5.0 4.0 -5.0 2.5 -4.0 3.5" transform="rotate(180,0,4.5)" />
    </g>
</svg>